# xmcd
#
# Track frame offsets: 
#        150
#        25629
#        46964
#        66428
#        80895
#        91687
#        105879
#        123589
#        140011
#        162340
#        183687
#        203817
#        220071
#        251956
#        276650
#        289015
#        303677
#        324574
#
# Disc length: 4499 seconds
#
# Revision: 0
# Processed by: cddbd v1.5.1PL2 Copyright (c) Steve Scherf et al.
# Submitted via: ExactAudioCopy v0.95b1
#
DISCID=17119112
DTITLE=Various Artist - Still Got The Blues
DYEAR=1992
DGENRE=Blues
TTITLE0=John Lee Hooker with Carlos Santana and The Santana Band - The H
TTITLE0=ealer
TTITLE1=Tony Joe White - Undercover Agent Of The Blues
TTITLE2=Robert Cray Band - Right Next Door (Because Of Me)
TTITLE3=Bonnie Raitt - Love Me Like A Man
TTITLE4=J.J. Cale - Crazy Mama
TTITLE5=Muddy Waters - You're Gonna Need My Help
TTITLE6=Fleetwood Mac - Need Your Love So Bad
TTITLE7=Brendan Croker And The 5 O'Clock Shadows - No Money At All
TTITLE8=Vaughan Brothers - Tick Tock
TTITLE9=Muskee - Window Of My Eyes
TTITLE10=Buddy Guy - Damn Right, I've Got The Blues
TTITLE11=Chris Whitley - Big Sky Country
TTITLE12=Walter Trout Band - Say Goodbye To The Blues
TTITLE13=Blues Brothers - Shot Gun Blues
TTITLE14=John Lee Hooker - I'm In The Mood
TTITLE15=Chicken Shack - I'd Rather Go Blind
TTITLE16=Stevie Ray Vaughan - The Sky Is Crying
TTITLE17=Big John's Blues Fantasy - Still Got The Blues (For You)
EXTD=
EXTT0=
EXTT1=
EXTT2=
EXTT3=
EXTT4=
EXTT5=
EXTT6=
EXTT7=
EXTT8=
EXTT9=
EXTT10=
EXTT11=
EXTT12=
EXTT13=
EXTT14=
EXTT15=
EXTT16=
EXTT17=
PLAYORDER=
